#!OML:ASF E:\motion texture\Top Level 1\Subject 1\Session 1\male.ASF
:FULLY-SPECIFIED
:DEGREES
118
root 27.6995 16.9793 5.7299 -94.1243 -89.4396 112.869
lowerback 24.5939 -2.35522 5.21791
upperback 8.84192 -2.42328 2.77902
thorax -3.94561 -1.46505 0.717243
lowerneck -17.1088 1.36776 -1.21673
upperneck -1.83679 1.64888 3.60001
head 2.3351 0.850926 1.5102
rclavicle -4.37326e-015 3.18055e-015
rhumerus 52.5275 25.8103 -67.1601
rradius 68.8719
rwrist 36.1127
rhand -36.9014 -28.0674
rfingers 7.12502
rthumb -9.97955 -57.8108
lclavicle -4.37326e-015 3.18055e-015
lhumerus 38.3621 -13.284 98.8517
lradius 59.3697
lwrist 40.1384
lhand -5.59032 28.3261
lfingers 7.12502
lthumb 20.2261 57.2931
rfemur -55.9505 -4.01323 19.9012
rtibia 34.855
rfoot 4.1529 -13.0691
rtoes 17.1397
lfemur -32.2831 0.988801 -17.7281
ltibia 58.4738
lfoot -16.0195 -2.77478
ltoes -22.2211
119
root 27.5577 16.999 5.72035 -125.331 -89.3868 144.43
lowerback 25.0354 -2.31477 5.15728
upperback 8.97707 -2.37875 2.93748
thorax -4.00097 -1.45774 0.927191
lowerneck -17.0465 1.43126 -1.1968
upperneck -2.14452 1.73082 3.4932
head 2.21576 0.880238 1.47118
rclavicle -2.38542e-015 -3.10104e-014
rhumerus 52.9857 25.7989 -67.3117
rradius 68.2225
rwrist 36.6002
rhand -36.9956 -28.5708
rfingers 7.12502
rthumb -10.0704 -58.3098
lclavicle -2.38542e-015 -3.10104e-014
lhumerus 38.8714 -12.9256 99.2697
lradius 58.8387
lwrist 40.3906
lhand -5.65096 28.2499
lfingers 7.12502
lthumb 20.1679 57.223
rfemur -56.1393 -3.8621 20.2504
rtibia 35.3703
rfoot 3.83797 -12.7446
rtoes 17.2361
lfemur -33.5842 1.24732 -17.5968
ltibia 59.3636
lfoot -15.6783 -2.5849
ltoes -22.2399
120
root 27.4149 17.0198 5.71098 -146.189 -89.2079 165.634
lowerback 25.4529 -2.27378 5.08679
upperback 9.11135 -2.33812 3.09101
thorax -4.04459 -1.45235 1.13775
lowerneck -16.9887 1.49014 -1.18685
upperneck -2.44106 1.80735 3.39906
head 2.10169 0.907673 1.43808
rclavicle -3.29983e-014 -1.35174e-014
rhumerus 53.3405 25.8076 -67.5157
rradius 67.5525
rwrist 37.0557
rhand -37.0481 -29.0819
rfingers 7.12502
rthumb -10.1211 -58.8185
lclavicle -3.29983e-014 -1.35174e-014
lhumerus 39.3258 -12.6096 99.6838
lradius 58.3025
lwrist 40.5824
lhand -5.68531 28.194
lfingers 7.12502
lthumb 20.1348 57.1706
rfemur -56.2836 -3.71414 20.5892
rtibia 35.8487
rfoot 3.46615 -12.4469
rtoes 17.2992
lfemur -34.8878 1.50163 -17.4745
ltibia 60.1693
lfoot -15.3668 -2.36751
ltoes -22.2248
121
root 27.271 17.0415 5.70175 -158.162 -88.9775 177.943
lowerback 25.8444 -2.23386 5.00825
upperback 9.24422 -2.30305 3.23874
thorax -4.07649 -1.44961 1.34738
lowerneck -16.9336 1.54461 -1.18597
upperneck -2.72704 1.87881 3.31627
head 1.99228 0.93332 1.41026
rclavicle 2.42517e-014 -9.54166e-015
rhumerus 53.5905 25.8369 -67.7684
rradius 66.8657
rwrist 37.4772
rhand -37.0668 -29.6023
rfingers 7.12502
rthumb -10.1391 -59.338
lclavicle 2.42517e-014 -9.54166e-015
lhumerus 39.7193 -12.3326 100.092
lradius 57.7697
lwrist 40.7449
lhand -5.6883 28.1755
lfingers 7.12502
lthumb 20.132 57.1524
rfemur -56.3834 -3.57254 20.9181
rtibia 36.2919
rfoot 3.03535 -12.1713
rtoes 17.3199
lfemur -36.1893 1.75136 -17.3619
ltibia 60.8837
lfoot -15.0843 -2.12232
ltoes -22.1774
122
root 27.1261 17.0638 5.6926 -165.339 -88.7323 185.445
lowerback 26.2098 -2.19526 4.92053
upperback 9.37462 -2.274 3.37994
thorax -4.09777 -1.44968 1.55606
lowerneck -16.8836 1.5944 -1.19613
upperneck -2.99897 1.94521 3.24735
head 1.88901 0.957356 1.38894
rclavicle -3.10104e-014 -1.51076e-014
rhumerus 53.7346 25.8854 -68.0648
rradius 66.1669
rwrist 37.8644
rhand -37.0488 -30.1256
rfingers 7.12502
rthumb -10.1217 -59.8622
lclavicle -3.10104e-014 -1.51076e-014
lhumerus 40.0556 -12.0936 100.489
lradius 57.2378
lwrist 40.8964
lhand -5.68293 28.2002
lfingers 7.12502
lthumb 20.1371 57.1765
rfemur -56.4405 -3.43945 21.2355
rtibia 36.7019
rfoot 2.55996 -11.9176
rtoes 17.2959
lfemur -37.484 1.99552 -17.261
ltibia 61.5004
lfoot -14.8298 -1.85026
ltoes -22.0964
123
root 26.9799 17.0866 5.68352 -170.043 -88.4887 190.465
lowerback 26.546 -2.15898 4.8262
upperback 9.50201 -2.25166 3.51429
thorax -4.10785 -1.45279 1.76211
lowerneck -16.8382 1.63983 -1.21713
upperneck -3.25589 2.00709 3.19214
head 1.79204 0.980064 1.37404
rclavicle 2.10712e-014 1.66979e-014
rhumerus 53.7712 25.9513 -68.4038
rradius 65.4603
rwrist 38.2128
rhand -36.991 -30.6513
rfingers 7.12502
rthumb -10.066 -60.3905
lclavicle 2.10712e-014 1.66979e-014
lhumerus 40.3258 -11.8926 100.873
lradius 56.7145
lwrist 41.0334
lhand -5.65907 28.2537
lfingers 7.12502
lthumb 20.1601 57.2277
rfemur -56.4567 -3.31667 21.5425
rtibia 37.0802
rfoot 2.05362 -11.6905
rtoes 17.2241
lfemur -38.7676 2.23285 -17.1713
ltibia 62.0124
lfoot -14.6017 -1.5507
ltoes -21.987
124
root 26.8327 17.1097 5.67451 -173.353 -88.2559 194.079
lowerback 26.8541 -2.12674 4.72716
upperback 9.62591 -2.23752 3.64167
thorax -4.10785 -1.45959 1.96478
lowerneck -16.799 1.68067 -1.24941
upperneck -3.49616 2.06432 3.15078
head 1.7021 1.00142 1.36571
rclavicle -1.55052e-014 1.35174e-014
rhumerus 53.7017 26.0327 -68.782
rradius 64.7508
rwrist 38.5163
rhand -36.8919 -31.1704
rfingers 7.12502
rthumb -9.97031 -60.9143
lclavicle -1.55052e-014 1.35174e-014
lhumerus 40.5239 -11.7296 101.238
lradius 56.2056
lwrist 41.143
lhand -5.61299 28.3313
lfingers 7.12502
lthumb 20.2044 57.3006
rfemur -56.4322 -3.20707 21.8375
rtibia 37.4291
rfoot 1.52432 -11.4923
rtoes 17.1161
lfemur -40.0352 2.45991 -17.0935
ltibia 62.4144
lfoot -14.3966 -1.22585
ltoes -21.8477
125
root 26.684 17.1329 5.66563 -175.91 -88.0298 196.917
lowerback 27.1427 -2.09697 4.62607
upperback 9.74884 -2.22896 3.76083
thorax -4.09928 -1.46897 2.16075
lowerneck -16.768 1.71713 -1.28994
upperneck -3.71863 2.11679 3.12073
head 1.61986 1.02126 1.36259
rclavicle -1.43125e-014 -8.34896e-015
rhumerus 53.5275 26.127 -69.1955
rradius 64.0442
rwrist 38.7651
rhand -36.7488 -31.6735
rfingers 7.12502
rthumb -9.83231 -61.424
lclavicle -1.43125e-014 -8.34896e-015
lhumerus 40.6543 -11.6041 101.582
lradius 55.7044
lwrist 41.2046
lhand -5.5342 28.4189
lfingers 7.12502
lthumb 20.2801 57.3801
rfemur -56.3544 -3.10464 22.1243
rtibia 37.7472
rfoot 0.979138 -11.3217
rtoes 16.9719
lfemur -41.2662 2.68171 -17.024
ltibia 62.6966
lfoot -14.2131 -0.87575
ltoes -21.6815
126
root 26.5339 17.1561 5.65688 -177.988 -87.8173 199.26
lowerback 27.4062 -2.07261 4.52608
upperback 9.86927 -2.22885 3.872
thorax -4.08125 -1.4821 2.34907
lowerneck -16.7443 1.74948 -1.33933
upperneck -3.92469 2.16502 3.10171
head 1.54463 1.03982 1.3647
rclavicle 1.07344e-014 -5.96354e-015
rhumerus 53.2496 26.2323 -69.6424
rradius 63.3464
rwrist 38.9556
rhand -36.5676 -32.1527
rfingers 7.12502
rthumb -9.65746 -61.9113
lclavicle 1.07344e-014 -5.96354e-015
lhumerus 40.7104 -11.5139 101.901
lradius 55.2183
lwrist 41.2103
lhand -5.42292 28.5202
lfingers 7.12502
lthumb 20.387 57.47
rfemur -56.2321 -3.01318 22.4009
rtibia 38.0417
rfoot 0.417423 -11.1845
rtoes 16.8043
lfemur -42.4642 2.89334 -16.963
ltibia 62.8564
lfoot -14.0464 -0.502182
ltoes -21.4946
127
root 26.3825 17.1791 5.64823 -179.786 -87.6167 201.301
lowerback 27.6448 -2.05299 4.42864
upperback 9.98697 -2.2358 3.97491
thorax -4.05421 -1.49828 2.52818
lowerneck -16.7282 1.77771 -1.39619
upperneck -4.11354 2.20889 3.09325
head 1.47666 1.05703 1.37164
rclavicle -2.18663e-014 -1.07344e-014
rhumerus 52.8687 26.3455 -70.1213
rradius 62.6627
rwrist 39.0855
rhand -36.3461 -32.6007
rfingers 7.12502
rthumb -9.44374 -62.3691
lclavicle -2.18663e-014 -1.07344e-014
lhumerus 40.696 -11.4574 102.194
lradius 54.7449
lwrist 41.1639
lhand -5.28145 28.6433
lfingers 7.12502
lthumb 20.523 57.5785
rfemur -56.0664 -2.92944 22.6685
rtibia 38.3156
rfoot -0.160737 -11.0827
rtoes 16.6004
lfemur -43.6247 3.09553 -16.9076
ltibia 62.8916
lfoot -13.8937 -0.107732
ltoes -21.2818
128
root 26.2295 17.2015 5.6396 -181.428 -87.427 203.17
lowerback 27.8552 -2.03818 4.33481
upperback 10.1016 -2.24964 4.06993
thorax -4.01706 -1.51736 2.69761
lowerneck -16.7184 1.80252 -1.45971
upperneck -4.28644 2.24927 3.09389
head 1.41525 1.07323 1.38282
rclavicle -3.26007e-014 -5.56597e-015
rhumerus 52.3878 26.4659 -70.626
rradius 61.9993
rwrist 39.1503
rhand -36.0892 -33.0139
rfingers 7.12502
rthumb -9.19591 -62.7933
lclavicle -3.26007e-014 -5.56597e-015
lhumerus 40.6061 -11.43 102.462
lradius 54.2926
lwrist 41.0743
lhand -5.12131 28.7463
lfingers 7.12502
lthumb 20.6769 57.6648
rfemur -55.8616 -2.85149 22.9299
rtibia 38.5724
rfoot -0.754748 -11.0109
rtoes 16.3546
lfemur -44.745 3.29087 -16.855
ltibia 62.7988
lfoot -13.7521 0.305431
ltoes -21.0483
129
root 26.075 17.2231 5.63097 -182.968 -87.2479 204.921
lowerback 28.0347 -2.02811 4.245
upperback 10.2127 -2.27005 4.15724
thorax -3.96925 -1.5391 2.85704
lowerneck -16.7139 1.82398 -1.52879
upperneck -4.44372 2.28616 3.10248
head 1.36008 1.08838 1.39763
rclavicle 2.10712e-014 -1.64991e-014
rhumerus 51.8105 26.5917 -71.1526
rradius 61.3612
rwrist 39.149
rhand -35.801 -33.3891
rfingers 7.12502
rthumb -8.91781 -63.1807
lclavicle 2.10712e-014 -1.64991e-014
lhumerus 40.4399 -11.4298 102.703
lradius 53.8637
lwrist 40.9486
lhand -4.94378 28.8628
lfingers 7.12502
lthumb 20.8474 57.7628
rfemur -55.622 -2.77967 23.186
rtibia 38.8158
rfoot -1.36266 -10.9611
rtoes 16.0732
lfemur -45.8237 3.47805 -16.8043
ltibia 62.5769
lfoot -13.62 0.734651
ltoes -20.7997
130
root 25.9191 17.244 5.62242 -184.456 -87.0868 206.6
lowerback 28.188 -2.02659 4.16271
upperback 10.319 -2.30032 4.23706
thorax -3.91433 -1.56499 3.00595
lowerneck -16.7152 1.8425 -1.60296
upperneck -4.58475 2.3201 3.1181
head 1.31139 1.10273 1.41577
rclavicle 2.46493e-014 1.66979e-014
rhumerus 51.1412 26.7217 -71.6969
rradius 60.7523
rwrist 39.0814
rhand -35.4849 -33.7201
rfingers 7.12502
rthumb -8.61278 -63.5244
lclavicle 2.46493e-014 1.66979e-014
lhumerus 40.1996 -11.4522 102.921
lradius 53.4591
lwrist 40.7843
lhand -4.7507 28.9922
lfingers 7.12502
lthumb 21.0329 57.8717
rfemur -55.3468 -2.72089 23.4336
rtibia 39.0477
rfoot -1.983 -10.9359
rtoes 15.761
lfemur -46.857 3.64799 -16.7552
ltibia 62.2269
lfoot -13.4953 1.17485
ltoes -20.5373
131
root 25.7616 17.2638 5.61377 -185.895 -86.9357 208.212
lowerback 28.3112 -2.03046 4.08434
upperback 10.4206 -2.3375 4.30864
thorax -3.85045 -1.59358 3.14434
lowerneck -16.7219 1.85848 -1.68161
upperneck -4.70948 2.35158 3.14061
head 1.26913 1.11652 1.43712
rclavicle -1.90833e-014 6.93758e-014
rhumerus 50.3832 26.8559 -72.2546
rradius 60.1797
rwrist 38.9484
rhand -35.1479 -34.0114
rfingers 7.12502
rthumb -8.28751 -63.8288
lclavicle -1.90833e-014 6.93758e-014
lhumerus 39.8833 -11.4942 103.114
lradius 53.0821
lwrist 40.5786
lhand -4.53739 29.1306
lfingers 7.12502
lthumb 21.2378 57.9871
rfemur -55.0404 -2.66583 23.6734
rtibia 39.2722
rfoot -2.61493 -10.9368
rtoes 15.4206
lfemur -47.8421 3.80918 -16.7058
ltibia 61.7473
lfoot -13.3765 1.62177
ltoes -20.2662
